<?xml version="1.0" encoding="UTF-8"?><!DOCTYPE svg PUBLIC "-//W3C//DTD SVG 1.1//EN" "http://www.w3.org/Graphics/SVG/1.1/DTD/svg11.dtd"><svg xmlns="http://www.w3.org/2000/svg">
<symbol id="default" viewBox="-290 382 30 30">
  <path d="M-266.5 388h-17c-.8 0-1.5.7-1.5 1.5v15c0 .8.7 1.5 1.5 1.5h17c.8 0 1.5-.7 1.5-1.5v-15c0-.8-.7-1.5-1.5-1.5zm.5 1.5v2.4c-.7.7-1.6 1.1-2.5 1.1-1.9 0-3.5-1.6-3.5-3.5 0-.2 0-.3.1-.5h5.4c.3 0 .5.2.5.5zm-17.5-.5h10.5v.5c0 2.5 2 4.5 4.5 4.5.9 0 1.8-.3 2.5-.8v6.1l-2.8-2.8c-.4-.4-1-.4-1.4 0l-2.8 2.8-4.8-4.8c-.4-.4-1-.4-1.4 0l-4.8 4.8v-9.8c0-.3.2-.5.5-.5zm-.5 15.5v-3.8l5.5-5.5 9.8 9.8h-14.8c-.3 0-.5-.2-.5-.5zm17.5.5h-.8l-5-5 2.8-2.8 3.5 3.5v3.8c0 .3-.2.5-.5.5z"/><path d="M-265.5 386h-19c-1.4 0-2.5 1.1-2.5 2.5v17c0 1.4 1.1 2.5 2.5 2.5h19c1.4 0 2.5-1.1 2.5-2.5v-17c0-1.4-1.1-2.5-2.5-2.5zm1.5 19.5c0 .8-.7 1.5-1.5 1.5h-19c-.8 0-1.5-.7-1.5-1.5v-17c0-.8.7-1.5 1.5-1.5h19c.8 0 1.5.7 1.5 1.5v17z"/>
</symbol>
</svg>
